<svg width="628" height="99" viewBox="0 0 628 99" fill="none" xmlns="http://www.w3.org/2000/svg">
<path d="M66.28 62.8L66.6825 63.0966L67.0214 62.6368L66.5207 62.3618L66.28 62.8ZM58.47 58.51L58.7107 58.0718L58.3085 57.8508L58.054 58.2327L58.47 58.51ZM58.47 20.23L58.0563 20.5107L58.3134 20.8896L58.7134 20.6668L58.47 20.23ZM66.17 15.94L66.4134 16.3768L66.8995 16.1059L66.5783 15.6514L66.17 15.94ZM38.34 77.82C51.5108 77.82 60.449 71.5564 66.6825 63.0966L65.8775 62.5034C59.791 70.7636 51.1292 76.82 38.34 76.82V77.82ZM66.5207 62.3618L58.7107 58.0718L58.2293 58.9482L66.0393 63.2382L66.5207 62.3618ZM58.054 58.2327C53.9639 64.3677 46.5279 68.68 38.34 68.68V69.68C46.8721 69.68 54.6161 65.1923 58.886 58.7873L58.054 58.2327ZM38.34 68.68C22.576 68.68 10.57 56.4941 10.57 39.37H9.57C9.57 57.0059 21.984 69.68 38.34 69.68V68.68ZM10.57 39.37C10.57 22.1371 22.5748 10.06 38.34 10.06V9.06C21.9852 9.06 9.57 21.6229 9.57 39.37H10.57ZM38.34 10.06C46.5241 10.06 53.9634 14.4792 58.0563 20.5107L58.8837 19.9492C54.6166 13.6608 46.8759 9.06 38.34 9.06V10.06ZM58.7134 20.6668L66.4134 16.3768L65.9267 15.5032L58.2267 19.7932L58.7134 20.6668ZM66.5783 15.6514C60.6707 7.29158 51.5084 0.919998 38.34 0.919998V1.92C51.1316 1.92 60.0093 8.08841 65.7617 16.2286L66.5783 15.6514ZM38.34 0.919998C16.9526 0.919998 0.11 16.5352 0.11 39.37H1.11C1.11 17.1048 17.4874 1.92 38.34 1.92V0.919998ZM0.11 39.37C0.11 62.2048 16.9526 77.82 38.34 77.82V76.82C17.4874 76.82 1.11 61.6352 1.11 39.37H0.11ZM100.796 77.82C117.291 77.82 127.586 65.005 127.586 49.38H126.586C126.586 64.555 116.641 76.82 100.796 76.82V77.82ZM127.586 49.38C127.586 41.5718 125.02 34.4901 120.376 29.3546C115.726 24.2139 109.018 21.05 100.796 21.05V22.05C108.744 22.05 115.181 25.1011 119.634 30.0254C124.092 34.9549 126.586 41.7882 126.586 49.38H127.586ZM100.796 21.05C92.5743 21.05 85.8655 24.2139 81.2163 29.3546C76.572 34.4901 74.0059 41.5718 74.0059 49.38H75.0059C75.0059 41.7882 77.4999 34.9549 81.958 30.0254C86.4114 25.1011 92.8475 22.05 100.796 22.05V21.05ZM74.0059 49.38C74.0059 65.005 84.3013 77.82 100.796 77.82V76.82C84.9506 76.82 75.0059 64.555 75.0059 49.38H74.0059ZM100.796 69.45C95.289 69.45 91.0034 67.104 88.0833 63.4373C85.1546 59.7597 83.5859 54.7328 83.5859 49.38H82.5859C82.5859 54.9172 84.2073 60.1753 87.3011 64.0602C90.4035 67.956 94.9729 70.45 100.796 70.45V69.45ZM83.5859 49.38C83.5859 44.0832 85.154 39.0839 88.0828 35.4197C91.0029 31.7661 95.2889 29.42 100.796 29.42V28.42C94.973 28.42 90.4039 30.9139 87.3016 34.7953C84.2078 38.6661 82.5859 43.8968 82.5859 49.38H83.5859ZM100.796 29.42C106.302 29.42 110.56 31.7656 113.453 35.4179C116.354 39.0816 117.896 44.0812 117.896 49.38H118.896C118.896 43.8988 117.303 38.6684 114.237 34.7971C111.162 30.9144 106.619 28.42 100.796 28.42V29.42ZM117.896 49.38C117.896 54.7348 116.354 59.762 113.452 63.439C110.56 67.1045 106.302 69.45 100.796 69.45V70.45C106.62 70.45 111.162 67.9555 114.237 64.0585C117.303 60.173 118.896 54.9152 118.896 49.38H117.896ZM212.915 76V76.5H213.415V76H212.915ZM180.245 31.45L179.764 31.5848L180.072 32.6875L180.671 31.7115L180.245 31.45ZM148.785 30.57H148.285V32.2673L149.205 30.8411L148.785 30.57ZM148.785 22.87H149.285V22.37H148.785V22.87ZM140.535 22.87V22.37H140.035V22.87H140.535ZM140.535 76H140.035V76.5H140.535V76ZM148.785 76V76.5H149.285V76H148.785ZM148.785 37.17L148.369 36.8926L148.285 37.0186V37.17H148.785ZM172.545 76H172.045V76.5H172.545V76ZM180.795 76V76.5H181.295V76H180.795ZM180.795 37.06L180.377 36.7852L180.295 36.9103V37.06H180.795ZM204.665 76H204.165V76.5H204.665V76ZM213.415 76V37.61H212.415V76H213.415ZM213.415 37.61C213.415 32.2016 212.105 28.0441 209.486 25.2376C206.861 22.425 202.997 21.05 198.065 21.05V22.05C202.814 22.05 206.375 23.37 208.755 25.9199C211.14 28.4759 212.415 32.3484 212.415 37.61H213.415ZM198.065 21.05C190.169 21.05 182.868 26.2201 179.819 31.1885L180.671 31.7115C183.563 26.9999 190.561 22.05 198.065 22.05V21.05ZM180.727 31.3152C179.931 28.4726 178.334 25.8997 175.872 24.0386C173.408 22.1765 170.108 21.05 165.945 21.05V22.05C169.922 22.05 173.002 23.1235 175.269 24.8364C177.536 26.5503 179.02 28.9274 179.764 31.5848L180.727 31.3152ZM165.945 21.05C161.924 21.05 158.095 22.4925 155.004 24.3528C151.918 26.2097 149.517 28.5136 148.365 30.2989L149.205 30.8411C150.253 29.2164 152.527 27.0103 155.519 25.2096C158.506 23.4125 162.157 22.05 165.945 22.05V21.05ZM149.285 30.57V22.87H148.285V30.57H149.285ZM148.785 22.37H140.535V23.37H148.785V22.37ZM140.035 22.87V76H141.035V22.87H140.035ZM140.535 76.5H148.785V75.5H140.535V76.5ZM149.285 76V37.17H148.285V76H149.285ZM149.201 37.4473C150.589 35.3661 152.68 33.3525 155.085 31.8612C157.491 30.3689 160.178 29.42 162.755 29.42V28.42C159.942 28.42 157.074 29.4511 154.558 31.0113C152.04 32.5725 149.842 34.6839 148.369 36.8926L149.201 37.4473ZM162.755 29.42C166.112 29.42 168.401 30.4541 169.864 32.2225C171.341 34.0083 172.045 36.6245 172.045 39.92H173.045C173.045 36.5054 172.319 33.6216 170.634 31.585C168.935 29.5309 166.328 28.42 162.755 28.42V29.42ZM172.045 39.92V76H173.045V39.92H172.045ZM172.545 76.5H180.795V75.5H172.545V76.5ZM181.295 76V37.06H180.295V76H181.295ZM181.213 37.3348C182.543 35.3136 184.631 33.3283 187.064 31.8498C189.497 30.3707 192.241 29.42 194.875 29.42V28.42C192.01 28.42 189.088 29.4493 186.544 30.9952C184 32.5416 181.798 34.6264 180.377 36.7852L181.213 37.3348ZM194.875 29.42C198.175 29.42 200.466 30.4528 201.944 32.2241C203.435 34.0115 204.165 36.6285 204.165 39.92H205.165C205.165 36.5015 204.41 33.6185 202.712 31.5834C201 29.5322 198.396 28.42 194.875 28.42V29.42ZM204.165 39.92V76H205.165V39.92H204.165ZM204.665 76.5H212.915V75.5H204.665V76.5ZM237.623 76V76.5H238.123V76H237.623ZM237.623 22.87H238.123V22.37H237.623V22.87ZM229.373 22.87V22.37H228.873V22.87H229.373ZM229.373 76H228.873V76.5H229.373V76ZM233.443 15.78C236.786 15.78 239.553 13.149 239.553 9.77999H238.553C238.553 12.571 236.26 14.78 233.443 14.78V15.78ZM239.553 9.77999C239.553 6.42385 236.799 3.66999 233.443 3.66999V4.66999C236.247 4.66999 238.553 6.97614 238.553 9.77999H239.553ZM233.443 3.66999C230.191 3.66999 227.443 6.43029 227.443 9.77999H228.443C228.443 6.9697 230.756 4.66999 233.443 4.66999V3.66999ZM227.443 9.77999C227.443 13.1426 230.203 15.78 233.443 15.78V14.78C230.743 14.78 228.443 12.5774 228.443 9.77999H227.443ZM238.123 76V22.87H237.123V76H238.123ZM237.623 22.37H229.373V23.37H237.623V22.37ZM228.873 22.87V76H229.873V22.87H228.873ZM229.373 76.5H237.623V75.5H229.373V76.5ZM298.19 76V76.5H298.69V76H298.19ZM262.33 30.57H261.83V31.9303L262.711 30.8938L262.33 30.57ZM262.33 22.87H262.83V22.37H262.33V22.87ZM254.08 22.87V22.37H253.58V22.87H254.08ZM254.08 76H253.58V76.5H254.08V76ZM262.33 76V76.5H262.83V76H262.33ZM262.33 37.17L261.924 36.8784L261.83 37.0091V37.17H262.33ZM289.94 76H289.44V76.5H289.94V76ZM298.69 76V38.71H297.69V76H298.69ZM298.69 38.71C298.69 32.8567 297.212 28.4177 294.24 25.4452C291.267 22.4727 286.883 21.05 281.25 21.05V22.05C286.727 22.05 290.813 23.4323 293.533 26.1523C296.253 28.8723 297.69 33.0133 297.69 38.71H298.69ZM281.25 21.05C273.151 21.05 265.761 25.7621 261.949 30.2462L262.711 30.8938C266.38 26.5779 273.51 22.05 281.25 22.05V21.05ZM262.83 30.57V22.87H261.83V30.57H262.83ZM262.33 22.37H254.08V23.37H262.33V22.37ZM253.58 22.87V76H254.58V22.87H253.58ZM254.08 76.5H262.33V75.5H254.08V76.5ZM262.83 76V37.17H261.83V76H262.83ZM262.736 37.4616C265.738 33.2806 271.756 29.42 278.06 29.42V28.42C271.384 28.42 265.082 32.4794 261.924 36.8784L262.736 37.4616ZM278.06 29.42C281.579 29.42 284.399 30.1527 286.343 31.9416C288.278 33.7232 289.44 36.6429 289.44 41.24H290.44C290.44 36.4871 289.237 33.2468 287.02 31.2059C284.811 29.1722 281.691 28.42 278.06 28.42V29.42ZM289.44 41.24V76H290.44V41.24H289.44ZM289.94 76.5H298.19V75.5H289.94V76.5ZM361.306 22.87H361.806V22.37H361.306V22.87ZM353.056 22.87V22.37H352.556V22.87H353.056ZM353.056 30.9L352.653 31.1963L353.556 32.4231V30.9H353.056ZM353.056 67.2H353.556V65.6398L352.649 66.9094L353.056 67.2ZM318.736 83.48L319.12 83.1599L318.695 82.6499L318.322 83.1992L318.736 83.48ZM314.556 89.64L314.142 89.3593L313.908 89.7044L314.206 89.9967L314.556 89.64ZM353.056 37.5H353.556V37.3578L353.481 37.2368L353.056 37.5ZM353.056 60.71L353.481 60.9732L353.556 60.8522V60.71H353.056ZM336.006 98.06C342.555 98.06 349.003 96.6744 353.826 93.008C358.673 89.3236 361.806 83.3899 361.806 74.46H360.806C360.806 83.1301 357.779 88.7464 353.221 92.212C348.639 95.6956 342.437 97.06 336.006 97.06V98.06ZM361.806 74.46V22.87H360.806V74.46H361.806ZM361.306 22.37H353.056V23.37H361.306V22.37ZM352.556 22.87V30.9H353.556V22.87H352.556ZM353.459 30.6037C349.084 24.6582 342.56 21.05 335.236 21.05V22.05C342.212 22.05 348.448 25.4818 352.653 31.1963L353.459 30.6037ZM335.236 21.05C328.117 21.05 322.064 23.7447 317.796 28.6324C313.533 33.5141 311.086 40.5425 311.086 49.16H312.086C312.086 40.7275 314.479 33.9509 318.549 29.2901C322.613 24.6353 328.385 22.05 335.236 22.05V21.05ZM311.086 49.16C311.086 57.8333 313.561 64.8353 317.839 69.6761C322.121 74.5221 328.175 77.16 335.236 77.16V76.16C328.437 76.16 322.666 73.6279 318.588 69.0139C314.506 64.3947 312.086 57.6467 312.086 49.16H311.086ZM335.236 77.16C342.901 77.16 349.534 72.9915 353.463 67.4906L352.649 66.9094C348.878 72.1885 342.531 76.16 335.236 76.16V77.16ZM352.556 67.2V74.79H353.556V67.2H352.556ZM352.556 74.79C352.556 80.4897 350.547 84.3247 347.519 86.7471C344.473 89.1839 340.334 90.24 336.006 90.24V91.24C340.478 91.24 344.864 90.1511 348.143 87.5279C351.44 84.8903 353.556 80.7503 353.556 74.79H352.556ZM336.006 90.24C332.253 90.24 329.105 89.7502 326.364 88.6273C323.629 87.5066 321.274 85.7443 319.12 83.1599L318.352 83.8001C320.598 86.4957 323.083 88.3634 325.985 89.5527C328.882 90.7398 332.169 91.24 336.006 91.24V90.24ZM318.322 83.1992L314.142 89.3593L314.97 89.9207L319.15 83.7607L318.322 83.1992ZM314.206 89.9967C317.385 93.1205 320.554 95.1441 324.084 96.3818C327.609 97.6175 331.466 98.06 336.006 98.06V97.06C331.526 97.06 327.793 96.6225 324.415 95.4382C321.043 94.2559 317.997 92.3195 314.906 89.2833L314.206 89.9967ZM337.216 68.9C332.028 68.9 327.909 66.8202 325.078 63.3371C322.238 59.8435 320.666 54.9034 320.666 49.16H319.666C319.666 55.0766 321.285 60.2565 324.302 63.9679C327.328 67.6898 331.734 69.9 337.216 69.9V68.9ZM320.666 49.16C320.666 43.3607 322.238 38.4214 325.077 34.9424C327.908 31.474 332.026 29.42 337.216 29.42V28.42C331.736 28.42 327.329 30.601 324.302 34.3101C321.284 38.0086 319.666 43.1893 319.666 49.16H320.666ZM337.216 29.42C343.639 29.42 349.86 33.2868 352.631 37.7632L353.481 37.2368C350.532 32.4732 343.993 28.42 337.216 28.42V29.42ZM352.556 37.5V60.71H353.556V37.5H352.556ZM352.631 60.4468C349.857 64.9281 343.633 68.9 337.216 68.9V69.9C343.999 69.9 350.535 65.7318 353.481 60.9732L352.631 60.4468ZM438.639 34.97L438.254 35.289L438.681 35.8038L439.054 35.2492L438.639 34.97ZM442.489 29.25L442.904 29.5292L443.134 29.1876L442.843 28.8964L442.489 29.25ZM405.859 63.02L406.238 62.6929L405.824 62.2149L405.454 62.7273L405.859 63.02ZM401.569 68.96L401.164 68.6673L400.922 69.0022L401.206 69.3029L401.569 68.96ZM423.019 77.82C429.978 77.82 435.326 76.0107 438.944 73.0165C442.57 70.0163 444.419 65.8577 444.419 61.26H443.419C443.419 65.5723 441.694 69.4437 438.307 72.246C434.913 75.0544 429.811 76.82 423.019 76.82V77.82ZM444.419 61.26C444.419 55.9292 442.287 52.3885 439.085 49.9288C435.915 47.4936 431.716 46.1335 427.599 45.0733C423.436 44.0012 419.398 43.2419 416.355 42.0171C414.844 41.4087 413.634 40.7052 412.805 39.8337C411.99 38.9767 411.529 37.9436 411.529 36.62H410.529C410.529 38.2114 411.097 39.4883 412.08 40.5228C413.05 41.5428 414.41 42.3122 415.982 42.9448C419.105 44.2019 423.29 44.9963 427.35 46.0417C431.455 47.099 435.479 48.4201 438.476 50.7218C441.44 52.999 443.419 56.2508 443.419 61.26H444.419ZM411.529 36.62C411.529 34.43 412.568 32.4833 414.488 31.0688C416.417 29.6483 419.248 28.76 422.799 28.76V27.76C419.091 27.76 416.037 28.6867 413.895 30.2636C411.746 31.8467 410.529 34.08 410.529 36.62H411.529ZM422.799 28.76C429.488 28.76 435.17 31.5667 438.254 35.289L439.024 34.651C435.729 30.6733 429.751 27.76 422.799 27.76V28.76ZM439.054 35.2492L442.904 29.5292L442.075 28.9708L438.225 34.6908L439.054 35.2492ZM442.843 28.8964C438.464 24.5179 431.959 21.05 422.799 21.05V22.05C431.68 22.05 437.934 25.4021 442.136 29.6036L442.843 28.8964ZM422.799 21.05C416.383 21.05 411.313 22.8359 407.837 25.7162C404.356 28.5999 402.499 32.5621 402.499 36.84H403.499C403.499 32.8679 405.217 29.1851 408.475 26.4863C411.736 23.7841 416.565 22.05 422.799 22.05V21.05ZM402.499 36.84C402.499 41.9346 404.642 45.2777 407.846 47.5922C411.014 49.8812 415.211 51.1573 419.321 52.2021C423.475 53.2579 427.515 54.0741 430.547 55.426C432.053 56.0978 433.264 56.8834 434.096 57.8584C434.918 58.8213 435.389 59.9901 435.389 61.48H436.389C436.389 59.7524 435.833 58.3534 434.857 57.2091C433.89 56.0769 432.531 55.216 430.954 54.5127C427.819 53.1147 423.636 52.2671 419.568 51.2329C415.456 50.1877 411.43 48.9475 408.431 46.7816C405.468 44.6411 403.499 41.5904 403.499 36.84H402.499ZM435.389 61.48C435.389 63.9671 434.36 66.1019 432.368 67.6281C430.363 69.1641 427.347 70.11 423.349 70.11V71.11C427.492 71.11 430.746 70.1309 432.976 68.4219C435.219 66.7031 436.389 64.2729 436.389 61.48H435.389ZM423.349 70.11C416.236 70.11 409.663 66.654 406.238 62.6929L405.481 63.3471C409.096 67.526 415.943 71.11 423.349 71.11V70.11ZM405.454 62.7273L401.164 68.6673L401.975 69.2527L406.265 63.3127L405.454 62.7273ZM401.206 69.3029C406.71 75.1447 414.224 77.82 423.019 77.82V76.82C414.435 76.82 407.209 74.2153 401.933 68.6171L401.206 69.3029ZM480.532 77.82C497.027 77.82 507.322 65.005 507.322 49.38H506.322C506.322 64.555 496.378 76.82 480.532 76.82V77.82ZM507.322 49.38C507.322 41.5718 504.756 34.4901 500.112 29.3546C495.463 24.2139 488.754 21.05 480.532 21.05V22.05C488.481 22.05 494.917 25.1011 499.37 30.0254C503.828 34.9549 506.322 41.7882 506.322 49.38H507.322ZM480.532 21.05C472.311 21.05 465.602 24.2139 460.953 29.3546C456.308 34.4901 453.742 41.5718 453.742 49.38H454.742C454.742 41.7882 457.236 34.9549 461.694 30.0254C466.148 25.1011 472.584 22.05 480.532 22.05V21.05ZM453.742 49.38C453.742 65.005 464.038 77.82 480.532 77.82V76.82C464.687 76.82 454.742 64.555 454.742 49.38H453.742ZM480.532 69.45C475.025 69.45 470.74 67.104 467.82 63.4373C464.891 59.7597 463.322 54.7328 463.322 49.38H462.322C462.322 54.9172 463.944 60.1753 467.037 64.0602C470.14 67.956 474.709 70.45 480.532 70.45V69.45ZM463.322 49.38C463.322 44.0832 464.89 39.0839 467.819 35.4197C470.739 31.7661 475.025 29.42 480.532 29.42V28.42C474.709 28.42 470.14 30.9139 467.038 34.7953C463.944 38.6661 462.322 43.8968 462.322 49.38H463.322ZM480.532 29.42C486.039 29.42 490.297 31.7656 493.189 35.4179C496.091 39.0816 497.632 44.0812 497.632 49.38H498.632C498.632 43.8988 497.039 38.6684 493.973 34.7971C490.898 30.9144 486.356 28.42 480.532 28.42V29.42ZM497.632 49.38C497.632 54.7348 496.09 59.762 493.189 63.439C490.296 67.1045 486.039 69.45 480.532 69.45V70.45C486.356 70.45 490.898 67.9555 493.974 64.0585C497.039 60.173 498.632 54.9152 498.632 49.38H497.632ZM543.482 77.82C559.976 77.82 570.271 65.005 570.271 49.38H569.271C569.271 64.555 559.327 76.82 543.482 76.82V77.82ZM570.271 49.38C570.271 41.5718 567.705 34.4901 563.061 29.3546C558.412 24.2139 551.703 21.05 543.482 21.05V22.05C551.43 22.05 557.866 25.1011 562.319 30.0254C566.778 34.9549 569.271 41.7882 569.271 49.38H570.271ZM543.482 21.05C535.26 21.05 528.551 24.2139 523.902 29.3546C519.258 34.4901 516.691 41.5718 516.691 49.38H517.691C517.691 41.7882 520.185 34.9549 524.644 30.0254C529.097 25.1011 535.533 22.05 543.482 22.05V21.05ZM516.691 49.38C516.691 65.005 526.987 77.82 543.482 77.82V76.82C527.636 76.82 517.691 64.555 517.691 49.38H516.691ZM543.482 69.45C537.975 69.45 533.689 67.104 530.769 63.4373C527.84 59.7597 526.271 54.7328 526.271 49.38H525.271C525.271 54.9172 526.893 60.1753 529.987 64.0602C533.089 67.956 537.658 70.45 543.482 70.45V69.45ZM526.271 49.38C526.271 44.0832 527.84 39.0839 530.768 35.4197C533.688 31.7661 537.974 29.42 543.482 29.42V28.42C537.659 28.42 533.089 30.9139 529.987 34.7953C526.893 38.6661 525.271 43.8968 525.271 49.38H526.271ZM543.482 29.42C548.988 29.42 553.246 31.7656 556.138 35.4179C559.04 39.0816 560.581 44.0812 560.581 49.38H561.581C561.581 43.8988 559.988 38.6684 556.922 34.7971C553.847 30.9144 549.305 28.42 543.482 28.42V29.42ZM560.581 49.38C560.581 54.7348 559.039 59.762 556.138 63.439C553.245 67.1045 548.988 69.45 543.482 69.45V70.45C549.305 70.45 553.848 67.9555 556.923 64.0585C559.989 60.173 561.581 54.9152 561.581 49.38H560.581ZM627.331 76V76.5H627.831V76H627.331ZM591.471 30.57H590.971V31.9303L591.852 30.8938L591.471 30.57ZM591.471 22.87H591.971V22.37H591.471V22.87ZM583.221 22.87V22.37H582.721V22.87H583.221ZM583.221 76H582.721V76.5H583.221V76ZM591.471 76V76.5H591.971V76H591.471ZM591.471 37.17L591.065 36.8784L590.971 37.0091V37.17H591.471ZM619.081 76H618.581V76.5H619.081V76ZM627.831 76V38.71H626.831V76H627.831ZM627.831 38.71C627.831 32.8567 626.353 28.4177 623.38 25.4452C620.408 22.4727 616.024 21.05 610.391 21.05V22.05C615.867 22.05 619.953 23.4323 622.673 26.1523C625.393 28.8723 626.831 33.0133 626.831 38.71H627.831ZM610.391 21.05C602.291 21.05 594.901 25.7621 591.09 30.2462L591.852 30.8938C595.52 26.5779 602.65 22.05 610.391 22.05V21.05ZM591.971 30.57V22.87H590.971V30.57H591.971ZM591.471 22.37H583.221V23.37H591.471V22.37ZM582.721 22.87V76H583.721V22.87H582.721ZM583.221 76.5H591.471V75.5H583.221V76.5ZM591.971 76V37.17H590.971V76H591.971ZM591.877 37.4616C594.879 33.2806 600.897 29.42 607.201 29.42V28.42C600.525 28.42 594.223 32.4794 591.065 36.8784L591.877 37.4616ZM607.201 29.42C610.719 29.42 613.54 30.1527 615.483 31.9416C617.419 33.7232 618.581 36.6429 618.581 41.24H619.581C619.581 36.4871 618.378 33.2468 616.161 31.2059C613.951 29.1722 610.832 28.42 607.201 28.42V29.42ZM618.581 41.24V76H619.581V41.24H618.581ZM619.081 76.5H627.331V75.5H619.081V76.5Z" fill="#FF002E"/>
</svg>
