<svg width="517" height="518" viewBox="0 0 517 518" fill="none" xmlns="http://www.w3.org/2000/svg">
<path d="M69.1788 259C69.1788 216.038 83.8159 174.358 110.678 140.829C137.539 107.3 175.023 83.9234 216.95 74.5516C258.878 65.1799 302.747 70.3723 341.328 89.2732C379.909 108.174 410.899 139.655 429.192 178.529L258.179 259L69.1788 259Z" fill="#FFBE0B"/>
<path d="M69.1788 259C69.1788 216.038 83.8159 174.358 110.678 140.829C137.539 107.3 175.023 83.9234 216.95 74.5516C258.878 65.1799 302.747 70.3723 341.328 89.2732C379.909 108.174 410.899 139.655 429.192 178.529L300.433 239.117C295.913 229.512 288.256 221.734 278.723 217.064C269.191 212.394 258.352 211.111 247.992 213.426C237.633 215.742 228.371 221.518 221.734 229.802C215.097 238.087 211.481 248.385 211.481 259L69.1788 259Z" fill="#1034A6"/>
<path d="M69.1788 259C69.1788 216.038 83.8159 174.358 110.678 140.829C137.539 107.3 175.023 83.9234 216.95 74.5516C258.878 65.1799 302.747 70.3723 341.328 89.2732C379.909 108.174 410.899 139.655 429.192 178.529L340.647 220.194C331.826 201.448 316.881 186.266 298.276 177.152C279.671 168.037 258.516 165.533 238.297 170.053C218.078 174.572 200.002 185.845 187.049 202.014C174.095 218.183 167.036 238.282 167.036 259L69.1788 259Z" fill="#FFBE0B"/>
<path d="M69.1788 259C69.1788 216.038 83.8159 174.358 110.678 140.829C137.539 107.3 175.023 83.9234 216.95 74.5516C258.878 65.1799 302.747 70.3723 341.328 89.2732C379.909 108.174 410.899 139.655 429.192 178.529L385.84 198.928C372.185 169.909 349.051 146.408 320.25 132.299C291.449 118.189 258.701 114.313 227.402 121.309C196.103 128.305 168.121 145.756 148.069 170.785C128.017 195.815 117.09 226.929 117.09 259L69.1788 259Z" fill="#1034A6"/>
<path d="M421.858 164.5C443.339 201.706 451.503 245.121 445.004 287.589C438.506 330.056 417.732 369.043 386.108 398.123C354.484 427.203 313.896 444.641 271.033 447.562C228.17 450.484 185.591 438.716 150.313 414.197L258.179 259L421.858 164.5Z" fill="#FFBE0B"/>
<path d="M421.858 164.5C443.339 201.706 451.503 245.121 445.004 287.589C438.506 330.056 417.732 369.043 386.108 398.123C354.484 427.203 313.896 444.641 271.033 447.562C228.17 450.484 185.591 438.716 150.313 414.197L231.527 297.346C240.244 303.404 250.764 306.312 261.355 305.59C271.945 304.868 281.974 300.56 289.788 293.375C297.601 286.19 302.734 276.557 304.34 266.064C305.945 255.571 303.928 244.844 298.621 235.651L421.858 164.5Z" fill="#1034A6"/>
<path d="M421.858 164.5C443.339 201.706 451.503 245.121 445.004 287.589C438.506 330.056 417.732 369.043 386.108 398.123C354.484 427.203 313.896 444.641 271.033 447.562C228.17 450.484 185.591 438.716 150.313 414.197L206.162 333.841C223.175 345.665 243.708 351.34 264.377 349.931C285.047 348.522 304.62 340.113 319.871 326.09C335.121 312.067 345.139 293.266 348.273 272.786C351.406 252.307 347.469 231.371 337.11 213.429L421.858 164.5Z" fill="#FFBE0B"/>
<path d="M421.858 164.5C443.339 201.706 451.503 245.121 445.004 287.589C438.506 330.056 417.732 369.043 386.108 398.123C354.484 427.203 313.896 444.641 271.033 447.562C228.17 450.484 185.591 438.716 150.313 414.197L177.657 374.854C203.992 393.158 235.777 401.943 267.774 399.762C299.771 397.581 330.07 384.563 353.678 362.855C377.286 341.147 392.793 312.044 397.644 280.341C402.495 248.639 396.401 216.23 380.365 188.456L421.858 164.5Z" fill="#1034A6"/>
</svg>
