<svg width="170" height="51" viewBox="0 0 170 51" fill="none" xmlns="http://www.w3.org/2000/svg">
<path d="M5.85924 25.8255C5.85924 21.6091 7.19409 17.5008 9.67246 14.0897C12.1508 10.6785 15.6455 8.13945 19.6556 6.8365L25.8255 25.8255L5.85924 25.8255Z" fill="#0C69B5"/>
<path d="M45.7918 25.8255C45.7918 30.042 44.457 34.1502 41.9786 37.5614C39.5002 40.9726 36.0056 43.5116 31.9955 44.8146L25.8256 25.8255L45.7918 25.8255Z" fill="#0C69B5"/>
<path d="M32.0185 6.84401C36.027 8.15183 39.5185 10.6951 41.9928 14.1093C44.467 17.5235 45.7969 21.6333 45.7918 25.8498L25.8255 25.8256L32.0185 6.84401Z" fill="#FFBE0B"/>
<path d="M19.6326 44.8071C15.6241 43.4993 12.1325 40.956 9.65828 37.5418C7.18405 34.1276 5.85419 30.0178 5.8593 25.8013L25.8255 25.8255L19.6326 44.8071Z" fill="#FFBE0B"/>
<path d="M70.16 33V27.48H76.62V24.98H70.16V22.16H76.76V19.66H67.32V33H70.16ZM87.0258 33V26.76C87.0258 23.98 85.0058 23.1 82.8058 23.1C81.2858 23.1 79.7658 23.58 78.5858 24.62L79.5458 26.32C80.3658 25.56 81.3258 25.18 82.3658 25.18C83.6458 25.18 84.4858 25.82 84.4858 26.8V28.1C83.8458 27.34 82.7058 26.92 81.4258 26.92C79.8858 26.92 78.0658 27.78 78.0658 30.04C78.0658 32.2 79.8858 33.24 81.4258 33.24C82.6858 33.24 83.8258 32.78 84.4858 32V33H87.0258ZM82.4458 31.52C81.4458 31.52 80.6258 31 80.6258 30.1C80.6258 29.16 81.4458 28.64 82.4458 28.64C83.2658 28.64 84.0658 28.92 84.4858 29.48V30.68C84.0658 31.24 83.2658 31.52 82.4458 31.52ZM93.0252 33.24C95.7052 33.24 97.2052 31.9 97.2052 30.14C97.2052 26.24 91.4852 27.44 91.4852 26C91.4852 25.46 92.0852 25.04 93.0052 25.04C94.1852 25.04 95.2852 25.54 95.8652 26.16L96.8852 24.42C95.9252 23.66 94.6252 23.1 92.9852 23.1C90.4452 23.1 89.0252 24.52 89.0252 26.14C89.0252 29.94 94.7652 28.64 94.7652 30.24C94.7652 30.84 94.2452 31.28 93.1452 31.28C91.9452 31.28 90.5052 30.62 89.8052 29.96L88.7052 31.74C89.7252 32.68 91.3452 33.24 93.0252 33.24ZM108.156 33V26.14C108.156 24.26 107.136 23.1 105.016 23.1C103.436 23.1 102.236 23.86 101.616 24.6V19.66H99.0764V33H101.616V26.5C102.056 25.92 102.836 25.36 103.816 25.36C104.916 25.36 105.616 25.78 105.616 27.12V33H108.156ZM111.938 22.3C112.778 22.3 113.458 21.62 113.458 20.78C113.458 19.94 112.778 19.28 111.938 19.28C111.118 19.28 110.418 19.94 110.418 20.78C110.418 21.62 111.118 22.3 111.938 22.3ZM113.218 33V23.34H110.678V33H113.218ZM120.217 33.24C123.417 33.24 125.337 30.92 125.337 28.16C125.337 25.42 123.417 23.1 120.217 23.1C117.037 23.1 115.117 25.42 115.117 28.16C115.117 30.92 117.037 33.24 120.217 33.24ZM120.217 30.98C118.637 30.98 117.757 29.68 117.757 28.16C117.757 26.66 118.637 25.36 120.217 25.36C121.797 25.36 122.697 26.66 122.697 28.16C122.697 29.68 121.797 30.98 120.217 30.98ZM136.281 33V26.18C136.281 24.3 135.261 23.1 133.141 23.1C131.561 23.1 130.381 23.86 129.761 24.6V23.34H127.221V33H129.761V26.5C130.181 25.92 130.961 25.36 131.961 25.36C133.041 25.36 133.741 25.82 133.741 27.16V33H136.281ZM140.063 22.3C140.903 22.3 141.583 21.62 141.583 20.78C141.583 19.94 140.903 19.28 140.063 19.28C139.243 19.28 138.543 19.94 138.543 20.78C138.543 21.62 139.243 22.3 140.063 22.3ZM141.343 33V23.34H138.803V33H141.343ZM147.342 33.24C150.022 33.24 151.522 31.9 151.522 30.14C151.522 26.24 145.802 27.44 145.802 26C145.802 25.46 146.402 25.04 147.322 25.04C148.502 25.04 149.602 25.54 150.182 26.16L151.202 24.42C150.242 23.66 148.942 23.1 147.302 23.1C144.762 23.1 143.342 24.52 143.342 26.14C143.342 29.94 149.082 28.64 149.082 30.24C149.082 30.84 148.562 31.28 147.462 31.28C146.262 31.28 144.822 30.62 144.122 29.96L143.022 31.74C144.042 32.68 145.662 33.24 147.342 33.24ZM156.633 33.24C157.693 33.24 158.373 32.96 158.753 32.62L158.213 30.7C158.073 30.84 157.713 30.98 157.333 30.98C156.773 30.98 156.453 30.52 156.453 29.92V25.56H158.413V23.34H156.453V20.7H153.893V23.34H152.293V25.56H153.893V30.6C153.893 32.32 154.853 33.24 156.633 33.24ZM168.491 33V26.76C168.491 23.98 166.471 23.1 164.271 23.1C162.751 23.1 161.231 23.58 160.051 24.62L161.011 26.32C161.831 25.56 162.791 25.18 163.831 25.18C165.111 25.18 165.951 25.82 165.951 26.8V28.1C165.311 27.34 164.171 26.92 162.891 26.92C161.351 26.92 159.531 27.78 159.531 30.04C159.531 32.2 161.351 33.24 162.891 33.24C164.151 33.24 165.291 32.78 165.951 32V33H168.491ZM163.911 31.52C162.911 31.52 162.091 31 162.091 30.1C162.091 29.16 162.911 28.64 163.911 28.64C164.731 28.64 165.531 28.92 165.951 29.48V30.68C165.531 31.24 164.731 31.52 163.911 31.52Z" fill="black"/>
</svg>
