<svg width="51" height="51" viewBox="0 0 51 51" fill="none" xmlns="http://www.w3.org/2000/svg">
<path d="M5.85924 25.8255C5.85924 21.6091 7.19409 17.5008 9.67246 14.0897C12.1508 10.6785 15.6455 8.13945 19.6556 6.8365L25.8255 25.8255L5.85924 25.8255Z" fill="#0C69B5"/>
<path d="M45.7918 25.8255C45.7918 30.042 44.457 34.1502 41.9786 37.5614C39.5002 40.9726 36.0056 43.5116 31.9955 44.8146L25.8256 25.8255L45.7918 25.8255Z" fill="#0C69B5"/>
<path d="M32.0185 6.84401C36.027 8.15183 39.5185 10.6951 41.9928 14.1093C44.467 17.5235 45.7969 21.6333 45.7918 25.8498L25.8255 25.8256L32.0185 6.84401Z" fill="#FFBE0B"/>
<path d="M19.6326 44.8071C15.6241 43.4993 12.1325 40.956 9.65828 37.5418C7.18405 34.1276 5.85419 30.0178 5.8593 25.8013L25.8255 25.8255L19.6326 44.8071Z" fill="#FFBE0B"/>
</svg>
