<svg width="102" height="496" viewBox="0 0 102 496" fill="none" xmlns="http://www.w3.org/2000/svg">
<rect x="102" width="124" height="124" transform="rotate(90 102 0)" fill="#FFBE0B"/>
<path d="M40.0001 124C56.4435 124 72.2134 117.468 83.8407 105.841C95.4679 94.2134 102 78.4434 102 62C102 45.5566 95.4679 29.7866 83.8407 18.1594C72.2134 6.53213 56.4435 4.91547e-07 40.0001 -2.71011e-06L40.0001 62L40.0001 124Z" fill="#0C69B5"/>
<path d="M40.0001 124C23.5566 124 7.78669 117.468 -3.84056 105.841C-15.4678 94.2134 -21.9999 78.4434 -21.9999 62C-21.9999 45.5566 -15.4678 29.7866 -3.84057 18.1594C7.78669 6.53213 23.5566 4.47423e-06 40.0001 2.71011e-06L40.0001 62L40.0001 124Z" fill="#FFBE0B"/>
<rect x="81.3333" y="62" width="47.12" height="41.7467" transform="rotate(90 81.3333 62)" fill="#FFBE0B"/>
<rect x="39.5869" y="62" width="47.12" height="40.0933" transform="rotate(90 39.5869 62)" fill="white"/>
<path d="M40.4133 24.7998C51.2659 24.7998 61.6741 29.111 69.3481 36.785C77.022 44.459 81.3333 54.8671 81.3333 65.7198L40.4132 65.7198L40.4133 24.7998Z" fill="white"/>
<path d="M-0.506754 65.7198C-0.506754 60.3461 0.551673 55.025 2.6081 50.0604C4.66452 45.0958 7.67866 40.5848 11.4784 36.785C15.2782 32.9852 19.7892 29.9711 24.7538 27.9147C29.7185 25.8582 35.0396 24.7998 40.4133 24.7998L40.4132 65.7198L-0.506754 65.7198Z" fill="#0C69B5"/>
<rect x="102" y="248" width="124" height="124" transform="rotate(90 102 248)" fill="#FFBE0B"/>
<path d="M40 372C56.4434 372 72.2134 365.468 83.8406 353.841C95.4679 342.213 102 326.443 102 310C102 293.557 95.4679 277.787 83.8406 266.159C72.2134 254.532 56.4434 248 40 248L40 310L40 372Z" fill="#0C69B5"/>
<path d="M40 372C23.5566 372 7.78663 365.468 -3.84062 353.841C-15.4679 342.213 -22 326.443 -22 310C-22 293.557 -15.4679 277.787 -3.84063 266.159C7.78663 254.532 23.5566 248 40 248L40 310L40 372Z" fill="#FFBE0B"/>
<rect x="81.3332" y="310" width="47.12" height="41.7467" transform="rotate(90 81.3332 310)" fill="#FFBE0B"/>
<rect x="39.5869" y="310" width="47.12" height="40.0933" transform="rotate(90 39.5869 310)" fill="white"/>
<path d="M40.4132 272.8C51.2659 272.8 61.674 277.111 69.348 284.785C77.022 292.459 81.3332 302.867 81.3332 313.72L40.4132 313.72L40.4132 272.8Z" fill="white"/>
<path d="M-0.506815 313.72C-0.506815 308.346 0.551612 303.025 2.60804 298.06C4.66446 293.096 7.6786 288.585 11.4784 284.785C15.2782 280.985 19.7891 277.971 24.7538 275.915C29.7184 273.858 35.0395 272.8 40.4132 272.8L40.4132 313.72L-0.506815 313.72Z" fill="#0C69B5"/>
<rect x="102" y="124" width="124" height="124" transform="rotate(90 102 124)" fill="#0C69B5"/>
<path d="M40.0001 248C56.4435 248 72.2134 241.468 83.8407 229.841C95.4679 218.213 102 202.443 102 186C102 169.557 95.4679 153.787 83.8407 142.159C72.2134 130.532 56.4435 124 40.0001 124L40.0001 186L40.0001 248Z" fill="#0C69B5"/>
<path d="M40.0001 248C23.5566 248 7.78669 241.468 -3.84056 229.841C-15.4678 218.213 -21.9999 202.443 -21.9999 186C-21.9999 169.557 -15.4678 153.787 -3.84057 142.159C7.78669 130.532 23.5566 124 40.0001 124L40.0001 186L40.0001 248Z" fill="#FFBE0B"/>
<rect x="81.3333" y="186" width="47.12" height="41.7467" transform="rotate(90 81.3333 186)" fill="#FFBE0B"/>
<rect x="39.5869" y="186" width="47.12" height="40.0933" transform="rotate(90 39.5869 186)" fill="white"/>
<path d="M40.4133 148.8C51.2659 148.8 61.6741 153.111 69.3481 160.785C77.022 168.459 81.3333 178.867 81.3333 189.72L40.4132 189.72L40.4133 148.8Z" fill="white"/>
<path d="M-0.506754 189.72C-0.506754 184.346 0.551673 179.025 2.6081 174.06C4.66452 169.096 7.67866 164.585 11.4784 160.785C15.2782 156.985 19.7892 153.971 24.7538 151.915C29.7185 149.858 35.0396 148.8 40.4133 148.8L40.4132 189.72L-0.506754 189.72Z" fill="#0C69B5"/>
<rect x="102" y="372" width="124" height="124" transform="rotate(90 102 372)" fill="#0C69B5"/>
<path d="M40 496C56.4434 496 72.2134 489.468 83.8406 477.841C95.4679 466.213 102 450.443 102 434C102 417.557 95.4679 401.787 83.8406 390.159C72.2134 378.532 56.4434 372 40 372L40 434L40 496Z" fill="#0C69B5"/>
<path d="M40 496C23.5566 496 7.78663 489.468 -3.84062 477.841C-15.4679 466.213 -22 450.443 -22 434C-22 417.557 -15.4679 401.787 -3.84063 390.159C7.78663 378.532 23.5566 372 40 372L40 434L40 496Z" fill="#FFBE0B"/>
<rect x="81.3332" y="434" width="47.12" height="41.7467" transform="rotate(90 81.3332 434)" fill="#FFBE0B"/>
<rect x="39.5869" y="434" width="47.12" height="40.0933" transform="rotate(90 39.5869 434)" fill="white"/>
<path d="M40.4132 396.8C51.2659 396.8 61.674 401.111 69.348 408.785C77.022 416.459 81.3332 426.867 81.3332 437.72L40.4132 437.72L40.4132 396.8Z" fill="white"/>
<path d="M-0.506815 437.72C-0.506815 432.346 0.551612 427.025 2.60804 422.06C4.66446 417.096 7.6786 412.585 11.4784 408.785C15.2782 404.985 19.7891 401.971 24.7538 399.915C29.7184 397.858 35.0395 396.8 40.4132 396.8L40.4132 437.72L-0.506815 437.72Z" fill="#0C69B5"/>
</svg>
